<?xml version="1.0" encoding="UTF-8" standalone="no"?>
<svg
   xmlns:dc="http://purl.org/dc/elements/1.1/"
   xmlns:cc="http://creativecommons.org/ns#"
   xmlns:rdf="http://www.w3.org/1999/02/22-rdf-syntax-ns#"
   xmlns:svg="http://www.w3.org/2000/svg"
   xmlns="http://www.w3.org/2000/svg"
   xmlns:xlink="http://www.w3.org/1999/xlink"
   xmlns:sodipodi="http://sodipodi.sourceforge.net/DTD/sodipodi-0.dtd"
   xmlns:inkscape="http://www.inkscape.org/namespaces/inkscape"
   enable-background="new 0 0 128 128"
   version="1.1"
   viewBox="0 0 64.025002 88.000999"
   xml:space="preserve"
   id="svg2"
   inkscape:version="0.91 r13725"
   sodipodi:docname="report.svg"
   width="64.025002"
   height="88.000999"><metadata
     id="metadata66"><rdf:RDF><cc:Work
         rdf:about=""><dc:format>image/svg+xml</dc:format><dc:type
           rdf:resource="http://purl.org/dc/dcmitype/StillImage" /><dc:title></dc:title></cc:Work></rdf:RDF></metadata><defs
     id="defs64"><clipPath
       id="SVGID_6_"><use
         overflow="visible"
         xlink:href="#SVGID_7_"
         id="use58"
         style="overflow:visible"
         x="0"
         y="0"
         width="100%"
         height="100%" /></clipPath><clipPath
       id="SVGID_4_"><use
         overflow="visible"
         xlink:href="#SVGID_5_"
         id="use30"
         style="overflow:visible"
         x="0"
         y="0"
         width="100%"
         height="100%" /></clipPath></defs><sodipodi:namedview
     pagecolor="#ffffff"
     bordercolor="#666666"
     borderopacity="1"
     objecttolerance="10"
     gridtolerance="10"
     guidetolerance="10"
     inkscape:pageopacity="0"
     inkscape:pageshadow="2"
     inkscape:window-width="1023"
     inkscape:window-height="828"
     id="namedview62"
     showgrid="false"
     inkscape:zoom="1.84375"
     inkscape:cx="-31.908041"
     inkscape:cy="68.396907"
     inkscape:window-x="434"
     inkscape:window-y="12"
     inkscape:window-maximized="0"
     inkscape:current-layer="svg2"
     fit-margin-top="0"
     fit-margin-left="0"
     fit-margin-right="0"
     fit-margin-bottom="0" /><path
     d="M 52.043997,0 4.018,0 C 1.579,0 0,2.11 0,4.549 l 0,78.903001 c 0,2.439 1.579,4.549 4.018,4.549 l 55.988997,0 c 2.439,0 4.018,-2.11 4.018,-4.549 l 0,-71.309001 L 52.043997,0 Z"
     id="path22"
     inkscape:connector-curvature="0"
     style="fill:#f1f1f1" /><g
     transform="translate(-32,-20)"
     id="g24"><defs
       id="defs26"><path
         d="M 84.044,20 36.018,20 C 33.579,20 32,22.11 32,24.549 l 0,78.903 c 0,2.439 1.579,4.549 4.018,4.549 l 55.989,0 c 2.439,0 4.018,-2.11 4.018,-4.549 l 0,-71.309 L 84.044,20 Z"
         id="SVGID_5_"
         inkscape:connector-curvature="0" /></defs><clipPath
       id="clipPath4172"><use
         overflow="visible"
         xlink:href="#SVGID_5_"
         id="use4174"
         style="overflow:visible"
         x="0"
         y="0"
         width="100%"
         height="100%" /></clipPath><g
       clip-path="url(#SVGID_4_)"
       id="g32"><polygon
         points="50.948,67.621 65.539,82.042 42.971,83.087 49.777,90 42.971,91.087 49.277,97.555 42.971,99.087 53.027,109.305 97.684,109.305 97.684,75.707 97.075,54.055 81.059,37.758 70.97,44.918 62.684,35.107 "
         id="polygon34"
         style="fill:#dde1f1" /></g></g><path
     d="m 56.185997,12.138 7.839,0.01 -11.981,-12.143 0,7.96 c 0,2.438 1.725,4.178 4.142,4.178 z"
     id="path36"
     inkscape:connector-curvature="0"
     style="fill:#c2dfc9" /><path
     d="m 51.999997,63.500001 -39.999997,0 c -0.828,0 -1.5,-0.672 -1.5,-1.5 0,-0.828 0.672,-1.5 1.5,-1.5 l 39.999997,0 c 0.828,0 1.5,0.672 1.5,1.5 0,0.828 -0.672,1.5 -1.5,1.5 z"
     id="path38"
     inkscape:connector-curvature="0"
     style="fill:#495260" /><path
     d="m 51.999997,71.500001 -39.999997,0 c -0.828,0 -1.5,-0.672 -1.5,-1.5 0,-0.828 0.672,-1.5 1.5,-1.5 l 39.999997,0 c 0.828,0 1.5,0.672 1.5,1.5 0,0.828 -0.672,1.5 -1.5,1.5 z"
     id="path40"
     inkscape:connector-curvature="0"
     style="fill:#495260" /><path
     d="m 51.999997,79.500001 -39.999997,0 c -0.828,0 -1.5,-0.672 -1.5,-1.5 0,-0.828 0.672,-1.5 1.5,-1.5 l 39.999997,0 c 0.828,0 1.5,0.672 1.5,1.5 0,0.828 -0.672,1.5 -1.5,1.5 z"
     id="path42"
     inkscape:connector-curvature="0"
     style="fill:#495260" /><g
     transform="translate(-32,-20)"
     id="g44"><path
       d="m 69.568,31.844 -1.319,11.303 c 2.314,0.88 4.242,2.728 5.132,5.245 0.573,1.619 0.631,3.292 0.274,4.851 l 10.257,4.895 c 0.527,0.252 1.155,-0.023 1.329,-0.581 1.308,-4.188 1.323,-8.819 -0.253,-13.273 -2.379,-6.723 -7.827,-11.477 -14.212,-13.254 -0.566,-0.158 -1.14,0.23 -1.208,0.814 z"
       id="path46"
       inkscape:connector-curvature="0"
       style="fill:#0e9cd9" /><path
       d="m 66.68,59.901 c -3.653,0.668 -7.398,-1.12 -9.176,-4.38 -1.094,-2.006 -1.312,-4.174 -0.858,-6.157 L 46.39,44.469 c -0.527,-0.251 -1.155,0.023 -1.329,0.58 -1.286,4.118 -1.322,8.663 0.175,13.049 3.701,10.842 15.624,16.783 26.503,13.191 4.655,-1.537 8.399,-4.531 10.911,-8.3 0.324,-0.486 0.141,-1.147 -0.385,-1.398 L 72.008,56.695 c -1.257,1.601 -3.079,2.795 -5.328,3.206 z"
       id="path48"
       inkscape:connector-curvature="0"
       style="fill:#e95037" /><path
       d="m 62.239,43.074 c 0.734,-0.26 1.479,-0.405 2.22,-0.464 l 1.316,-11.275 c 0.067,-0.576 -0.389,-1.08 -0.968,-1.071 -2.218,0.035 -4.469,0.421 -6.676,1.202 -4.455,1.576 -8.045,4.5 -10.479,8.151 -0.324,0.486 -0.142,1.147 0.385,1.399 l 10.257,4.895 c 0.988,-1.257 2.326,-2.264 3.945,-2.837 z"
       id="path50"
       inkscape:connector-curvature="0"
       style="fill:#69b32d" /><g
       id="g52"><defs
         id="defs54"><path
           d="m 69.695,30.76 -1.446,12.387 c 2.314,0.88 4.242,2.728 5.132,5.245 0.573,1.619 0.631,3.292 0.274,4.851 l 10.257,4.895 c 0.527,0.252 1.155,-0.023 1.329,-0.581 1.308,-4.188 1.323,-8.819 -0.253,-13.273 C 82.476,37.185 76.541,32.281 69.695,30.76 Z M 66.68,59.901 c -3.653,0.668 -7.398,-1.12 -9.176,-4.38 -1.094,-2.006 -1.312,-4.174 -0.858,-6.157 L 46.39,44.469 c -0.527,-0.251 -1.155,0.023 -1.329,0.58 -1.286,4.118 -1.322,8.663 0.175,13.049 3.701,10.842 15.624,16.783 26.503,13.191 4.655,-1.537 8.399,-4.531 10.911,-8.3 0.324,-0.486 0.141,-1.147 -0.385,-1.398 L 72.008,56.695 c -1.257,1.601 -3.079,2.795 -5.328,3.206 z M 62.239,43.074 c 0.734,-0.26 1.479,-0.405 2.22,-0.464 l 1.316,-11.275 c 0.067,-0.576 -0.389,-1.08 -0.968,-1.071 -2.218,0.035 -4.469,0.421 -6.676,1.202 -4.455,1.576 -8.045,4.5 -10.479,8.151 -0.324,0.486 -0.142,1.147 0.385,1.399 l 10.257,4.895 c 0.988,-1.257 2.326,-2.264 3.945,-2.837 z"
           id="SVGID_7_"
           inkscape:connector-curvature="0" /></defs><clipPath
         id="clipPath4189"><use
           overflow="visible"
           xlink:href="#SVGID_7_"
           id="use4191"
           style="overflow:visible"
           x="0"
           y="0"
           width="100%"
           height="100%" /></clipPath><circle
         clip-path="url(#SVGID_6_)"
         cx="65.151001"
         cy="51.304001"
         r="12.507"
         id="circle60"
         style="opacity:0.4;fill:#ffffff" /></g></g></svg>