<?xml version="1.0" encoding="UTF-8" standalone="no"?>
<svg
   xmlns:dc="http://purl.org/dc/elements/1.1/"
   xmlns:cc="http://creativecommons.org/ns#"
   xmlns:rdf="http://www.w3.org/1999/02/22-rdf-syntax-ns#"
   xmlns:svg="http://www.w3.org/2000/svg"
   xmlns="http://www.w3.org/2000/svg"
   xmlns:sodipodi="http://sodipodi.sourceforge.net/DTD/sodipodi-0.dtd"
   xmlns:inkscape="http://www.inkscape.org/namespaces/inkscape"
   version="1.1"
   viewBox="17.3332996368408 10.6667003631592 133.333707809448 146.666292190552"
   id="svg2"
   inkscape:version="0.91 r13725"
   sodipodi:docname="server.svg">
  <metadata
     id="metadata78">
    <rdf:RDF>
      <cc:Work
         rdf:about="">
        <dc:format>image/svg+xml</dc:format>
        <dc:type
           rdf:resource="http://purl.org/dc/dcmitype/StillImage" />
        <dc:title></dc:title>
      </cc:Work>
    </rdf:RDF>
  </metadata>
  <sodipodi:namedview
     pagecolor="#ffffff"
     bordercolor="#666666"
     borderopacity="1"
     objecttolerance="10"
     gridtolerance="10"
     guidetolerance="10"
     inkscape:pageopacity="0"
     inkscape:pageshadow="2"
     inkscape:window-width="1600"
     inkscape:window-height="844"
     id="namedview76"
     showgrid="false"
     inkscape:zoom="2.56"
     inkscape:cx="29.892298"
     inkscape:cy="78.794233"
     inkscape:window-x="0"
     inkscape:window-y="0"
     inkscape:window-maximized="1"
     inkscape:current-layer="g46" />
  <defs
     id="defs4">
    <linearGradient
       id="def0"
       x1="-1.5058E-07"
       x2="1"
       y1="0.5"
       y2="0.5">
      <stop
         offset="0"
         stop-color="#E6E6E8"
         id="stop7" />
      <stop
         offset="1"
         stop-color="#939597"
         id="stop9" />
    </linearGradient>
    <linearGradient
       id="def1"
       x1="-2.30728E-08"
       x2="1"
       y1="0.5"
       y2="0.5">
      <stop
         offset="0"
         stop-color="#BCBDBF"
         id="stop12" />
      <stop
         offset="1"
         stop-color="#D0D2D3"
         id="stop14" />
    </linearGradient>
    <linearGradient
       id="def2"
       x1="0.5"
       x2="0.5"
       y1="1"
       y2="8.17435E-07">
      <stop
         offset="0"
         stop-color="#6D6D70"
         style="stop-opacity:0.501960784313725"
         id="stop17" />
      <stop
         offset="1"
         stop-color="#BCBDBF"
         style="stop-opacity:0.501960784313725"
         id="stop19" />
    </linearGradient>
    <linearGradient
       id="def3"
       x1="0.5"
       x2="0.5"
       y1="1"
       y2="8.4771E-07">
      <stop
         offset="0"
         stop-color="#6D6D70"
         style="stop-opacity:0.501960784313725"
         id="stop22" />
      <stop
         offset="1"
         stop-color="#BCBDBF"
         style="stop-opacity:0.501960784313725"
         id="stop24" />
    </linearGradient>
    <linearGradient
       id="def4"
       x1="0.5"
       x2="0.5"
       y1="1"
       y2="1.27157E-06">
      <stop
         offset="0"
         stop-color="#BCBDBF"
         id="stop27" />
      <stop
         offset="1"
         stop-color="#6D6D70"
         id="stop29" />
    </linearGradient>
    <linearGradient
       id="def5"
       x1="0.500009"
       x2="0.500009"
       y1="1"
       y2="1.04037E-06">
      <stop
         offset="0"
         stop-color="#BCBDBF"
         id="stop32" />
      <stop
         offset="1"
         stop-color="#6D6D70"
         id="stop34" />
    </linearGradient>
    <linearGradient
       id="def6"
       x1="0.5"
       x2="0.5"
       y1="1"
       y2="0">
      <stop
         offset="0"
         stop-color="#BCBDBF"
         id="stop37" />
      <stop
         offset="1"
         stop-color="#6D6D70"
         id="stop39" />
    </linearGradient>
    <linearGradient
       id="def7"
       x1="0.500009"
       x2="0.500009"
       y1="1"
       y2="0">
      <stop
         offset="0"
         stop-color="#BCBDBF"
         id="stop42" />
      <stop
         offset="1"
         stop-color="#6D6D70"
         id="stop44" />
    </linearGradient>
  </defs>
  <g
     id="g46">
    <path
       d="M150.667,150.667L100,157.333 100,10.6667 150.667,16 150.667,150.667z"
       fill="url(#def0)"
       id="path48" />
    <path
       d="M100,157.333L17.3333,138.667 17.3333,28 100,10.6667 100,157.333z"
       fill="url(#def1)"
       id="path50" />
    <path
       d="M140,69.3333L146.667,69.3333 146.667,76.852 140,77.9653 140,69.3333z"
       fill="#66CC33"
       id="path52" />
    <path
       d="M148,68L140,68 140,78.7507 148,77.4173 M146.667,69.3333L146.667,76.2867 141.333,77.18 141.333,69.3333 146.667,69.3333z"
       fill="#009900"
       id="path54" />
    <path
       d="M140,83.2507L146.667,82.1373 146.667,90.1867 140,91.2987 140,83.2507z"
       fill="#66CC33"
       id="path56" />
    <path
       d="M148,81.3516L140,82.6849 140,92.0849 148,90.7516 M146.667,82.6663L146.667,89.6196 141.333,90.5129 141.333,83.8156 146.667,82.9236 146.667,82.6663z"
       fill="#009900"
       id="path58" />
    <g
       id="g60">
      <path
         d="M147.333,37.3333L104.667,36 104.667,18.6667 147.333,22.6667 147.333,37.3333z"
         fill="url(#def2)"
         id="path62" />
      <path
         d="M147.333,58L104.667,58 104.667,40 147.333,41.3333 147.333,58z"
         fill="url(#def3)"
         id="path64" />
    </g>
    <path
       d="M146.667,126L104,130 104,120.667 146.667,118 146.667,126z"
       fill="url(#def4)"
       id="path66" />
    <path
       d="M93.3333,130.667L21.3333,121.333 21.3333,116 93.3333,121.333 93.3333,130.667z"
       fill="url(#def5)"
       id="path68" />
    <path
       d="M146.667,138L104,143.333 104,134 146.667,130 146.667,138z"
       fill="url(#def6)"
       id="path70" />
    <path
       d="M93.3333,144L21.3333,132 21.3333,125.333 93.3333,134.667 93.3333,144z"
       fill="url(#def7)"
       id="path72" />
    <path
       d="M23.3405,26.7403L96.8859,14.3683 100.001,88.2963 102.486,14.3683 150.667,16.0003 100.001,10.6669 23.3405,26.7403z"
       fill="#FFFFFF"
       style="fill-opacity:0.501960784313725"
       id="path74" />
  </g>
</svg>
