<?xml version="1.0" encoding="UTF-8" standalone="no"?>
<svg
   xmlns:dc="http://purl.org/dc/elements/1.1/"
   xmlns:cc="http://creativecommons.org/ns#"
   xmlns:rdf="http://www.w3.org/1999/02/22-rdf-syntax-ns#"
   xmlns:svg="http://www.w3.org/2000/svg"
   xmlns="http://www.w3.org/2000/svg"
   xmlns:sodipodi="http://sodipodi.sourceforge.net/DTD/sodipodi-0.dtd"
   xmlns:inkscape="http://www.inkscape.org/namespaces/inkscape"
   id="Layer_1"
   version="1.1"
   viewBox="0 0 72 64.900002"
   xml:space="preserve"
   inkscape:version="0.91 r13725"
   sodipodi:docname="software.svg"
   width="72"
   height="64.900002"><metadata
     id="metadata47"><rdf:RDF><cc:Work
         rdf:about=""><dc:format>image/svg+xml</dc:format><dc:type
           rdf:resource="http://purl.org/dc/dcmitype/StillImage" /><dc:title></dc:title></cc:Work></rdf:RDF></metadata><defs
     id="defs45" /><sodipodi:namedview
     pagecolor="#ffffff"
     bordercolor="#666666"
     borderopacity="1"
     objecttolerance="10"
     gridtolerance="10"
     guidetolerance="10"
     inkscape:pageopacity="0"
     inkscape:pageshadow="2"
     inkscape:window-width="1600"
     inkscape:window-height="844"
     id="namedview43"
     showgrid="false"
     fit-margin-top="0"
     fit-margin-left="0"
     fit-margin-right="0"
     fit-margin-bottom="0"
     inkscape:zoom="4.5101946"
     inkscape:cx="28.0294"
     inkscape:cy="26.21524"
     inkscape:window-x="0"
     inkscape:window-y="0"
     inkscape:window-maximized="1"
     inkscape:current-layer="Layer_1" /><style
     type="text/css"
     id="style3">
	.st0{fill:#7688A1;}
	.st1{fill:#FABB8E;}
	.st2{fill:#E69D6A;}
	.st3{fill:#594667;}
	.st4{fill:#E73A36;}
	.st5{fill:#CFE5E4;}
	.st6{fill:#FFFFFF;}
	.st7{fill:#EEF1F6;}
	.st8{fill:#8EDAFA;}
	.st9{fill:#FFF383;}
	.st10{fill:#70B7D6;}
	.st11{fill:#FFAEC3;}
	.st12{fill:#FF9DB2;}
	.st13{fill:#F18DA2;}
	.st14{fill:#FFDF97;}
	.st15{fill:#49375B;}
	.st16{fill:#452E1B;}
	.st17{fill:#FEF6B0;}
	.st18{fill:#FFCCA9;}
	.st19{fill:#FED766;}
	.st20{fill:#8A9DB2;}
	.st21{fill:#5D738C;}
	.st22{fill:#2C3E50;}
	.st23{fill:#EC685E;}
	.st24{fill:#54758C;}
	.st25{fill:#D12828;}
	.st26{fill:#69567C;}
	.st27{fill:#857399;}
	.st28{fill:#705D82;}
	.st29{fill:#EAA678;}
	.st30{fill:#D88D5B;}
	.st31{fill:#3597D3;}
	.st32{fill:#E27491;}
	.st33{fill:#E4F2F1;}
	.st34{fill:#FFE576;}
	.st35{fill:#FFB8CB;}
	.st36{fill:#C91F1F;}
	.st37{fill:#E0E2EE;}
	.st38{fill:#FEFEFE;}
	.st39{fill:#E5E5E5;}
	.st40{fill:#D3D3D3;}
	.st41{fill:#C2C3C4;}
	.st42{fill:none;}
	.st43{fill:#FFFBD7;}
	.st44{fill:#CCCCCC;}
	.st45{fill:#FFF5B0;}
	.st46{fill:#EDEFF4;}
	.st47{fill:#F0F2F7;}
	.st48{fill:#D3EBF7;}
</style><g
     id="g5"
     transform="translate(-1,-4.6)"><g
       id="g7"><path
         class="st4"
         d="M 68.2,4.6 5.8,4.6 C 3.1,4.6 1,6.7 1,9.4 l 0,13 72,0 0,-13 C 73,6.7 70.9,4.6 68.2,4.6 Z"
         id="path9"
         inkscape:connector-curvature="0"
         style="fill:#e73a36" /></g><g
       id="g11"><rect
         class="st6"
         height="7.8000002"
         width="33.099998"
         x="6"
         y="9.6000004"
         id="rect13"
         style="fill:#ffffff" /></g><g
       id="g15"><path
         class="st7"
         d="m 1,22.4 0,42.3 c 0,2.6 2.1,4.8 4.8,4.8 l 62.4,0 c 2.6,0 4.8,-2.1 4.8,-4.8 l 0,-42.3 -72,0 z"
         id="path17"
         inkscape:connector-curvature="0"
         style="fill:#eef1f6" /></g><g
       id="g19"><rect
         class="st8"
         height="16.5"
         width="20.5"
         x="7.9000001"
         y="29.299999"
         id="rect21"
         style="fill:#8edafa" /></g><g
       id="g23"><g
         id="g25"><path
           class="st9"
           d="m 60.3,12.8 c -0.4,2.6 1.8,4.9 4.5,4.5 1.6,-0.3 3,-1.6 3.2,-3.2 0.4,-2.6 -1.8,-4.9 -4.5,-4.5 -1.7,0.3 -3,1.6 -3.2,3.2 z"
           id="path27"
           inkscape:connector-curvature="0"
           style="fill:#fff383" /></g><g
         id="g29"><path
           class="st9"
           d="m 47,12.8 c -0.4,2.6 1.8,4.9 4.5,4.5 1.6,-0.3 3,-1.6 3.2,-3.2 0.4,-2.6 -1.8,-4.9 -4.5,-4.5 -1.6,0.3 -3,1.6 -3.2,3.2 z"
           id="path31"
           inkscape:connector-curvature="0"
           style="fill:#fff383" /></g></g><g
       id="g33"><path
         class="st10"
         d="m 66.1,32.2 -30.5,0 C 35.3,32.2 35,31.9 35,31.6 35,31.3 35.3,31 35.6,31 l 30.5,0 c 0.3,0 0.6,0.3 0.6,0.6 0,0.3 -0.3,0.6 -0.6,0.6 z"
         id="path35"
         inkscape:connector-curvature="0"
         style="fill:#70b7d6" /><path
         class="st10"
         d="m 66.1,41.7 -30.5,0 c -0.3,0 -0.6,-0.3 -0.6,-0.6 0,-0.3 0.3,-0.6 0.6,-0.6 l 30.5,0 c 0.3,0 0.6,0.3 0.6,0.6 0,0.3 -0.3,0.6 -0.6,0.6 z"
         id="path37"
         inkscape:connector-curvature="0"
         style="fill:#70b7d6" /><path
         class="st10"
         d="m 66.1,51.3 -58.2,0 C 7.6,51.3 7.3,51 7.3,50.7 7.3,50.4 7.6,50 7.9,50 l 58.2,0 c 0.3,0 0.6,0.3 0.6,0.6 0,0.3 -0.3,0.7 -0.6,0.7 z"
         id="path39"
         inkscape:connector-curvature="0"
         style="fill:#70b7d6" /><path
         class="st10"
         d="m 66.1,60.8 -58.2,0 c -0.3,0 -0.6,-0.3 -0.6,-0.6 0,-0.3 0.3,-0.6 0.6,-0.6 l 58.2,0 c 0.3,0 0.6,0.3 0.6,0.6 0,0.3 -0.3,0.6 -0.6,0.6 z"
         id="path41"
         inkscape:connector-curvature="0"
         style="fill:#70b7d6" /></g></g></svg>